# xmcd CD database file
#
# Track frame offsets:
#	150
#	18240
#	34627
#	53877
#	76522
#	91145
#	110015
#	111310
#	140710
#
# Disc length: 2259 seconds
#
# Revision: 1
# Processed by: cddbd v1.5.1PL0 Copyright (c) Steve Scherf et al.
# Submitted via: CDex 1.51
#
DISCID=6a08d109
DTITLE=coba - ????????
DYEAR=2003
DGENRE=Jazz
TTITLE0=???? ??????? (????'94?)
TTITLE1=?????????? (16????????????)
TTITLE2=fellinism (????'97?)
TTITLE3=CREPUSCULE (????'98?)
TTITLE4=telephone king (????'00?)
TTITLE5=?????????? (???????????'00?)
TTITLE6=?? -????- (CM?????????????????)
TTITLE7=???? discotheque (???????????'03???????????)
TTITLE8=???????
EXTD=YEAR: 2003
EXTT0=
EXTT1=
EXTT2=
EXTT3=
EXTT4=
EXTT5=
EXTT6=
EXTT7=
EXTT8=
PLAYORDER=
